<svg width="263" height="107" viewBox="0 0 263 107" fill="none" xmlns="http://www.w3.org/2000/svg">
<g clip-path="url(#clip0_90_2)">
<path d="M53.62 96.5312L29 106.406L29.45 0.917969L53.92 13.8753L53.62 96.5312Z" fill="#BA2026"/>
<path d="M84.3895 84.3119L59.7695 91.3712L60.2195 15.9492L84.6895 25.2177L84.3895 84.3119Z" fill="#BA2026"/>
<path d="M0.3 84.3119L24.91 91.3712L24.46 15.9492L0 25.2177L0.3 84.3119Z" fill="#BA2026"/>
<path d="M106.751 17.4461C115.155 17.4461 120.014 24.0993 120.014 32.8098C120.014 41.4765 115.155 48.0859 106.751 48.0859H95.283V17.4461H106.751ZM101.892 42.0017H106.751C111.128 42.0017 113.36 37.5808 113.36 32.8098C113.36 28.0387 111.128 23.5303 106.751 23.5303H101.892V42.0017ZM125.76 48.0859V17.4461H132.37V48.0859H125.76ZM161.413 17.4461V48.0859H155.592L146.006 30.4899V48.0859H139.396V17.4461H145.48L154.76 34.8232V17.4461H161.413ZM187.461 48.0859L185.272 40.9512H175.03L172.885 48.0859H165.794L176.562 17.4461H183.784L194.508 48.0859H187.461ZM176.868 34.9108H183.39L180.107 24.0993L176.868 34.9108Z" fill="white"/>
<path d="M104.452 57.7896H107.244V74.0781H104.452V67.7722H98.1459L98.1226 74.0781H95.3303V57.7896H98.1226L98.1459 65.0962H104.452V57.7896ZM118.107 74.5202C113.686 74.5202 110.219 70.6808 110.219 66.0735C110.219 61.4662 113.686 57.65 118.107 57.65C122.459 57.65 125.949 61.4662 125.949 66.0735C125.949 70.6808 122.459 74.5202 118.107 74.5202ZM113.058 66.0735C113.058 69.1683 115.129 71.7047 118.084 71.7047C121.016 71.7047 123.134 69.1683 123.134 66.0735C123.134 62.9787 121.016 60.4656 118.084 60.4656C115.129 60.4656 113.058 62.9787 113.058 66.0735ZM131.754 71.472H137.223V74.0781H128.939V57.7896H131.754V71.472ZM146.054 57.7896C150.476 57.7896 153.035 61.3266 153.035 65.9572C153.035 70.5645 150.476 74.0781 146.054 74.0781H140.051V57.7896H146.054ZM142.843 71.472H146.054C148.777 71.472 150.22 68.9123 150.22 65.9572C150.22 63.002 148.777 60.3958 146.054 60.3958H142.843V71.472ZM156.094 74.0781V57.7896H158.91V74.0781H156.094ZM174.064 57.7896V74.0781H171.527L165.454 63.2579V74.0781H162.638V57.7896H165.268L171.248 68.54V57.7896H174.064ZM184.799 74.3574C180.448 74.3574 177.027 70.5877 177.027 65.9572C177.027 61.3266 180.448 57.5104 184.799 57.5104C187.336 57.5104 189.57 58.7902 190.989 60.7914L188.778 62.5366C187.824 61.28 186.405 60.4656 184.799 60.4656C181.984 60.4656 179.75 63.002 179.75 66.0037C179.61 69.0287 181.891 71.5883 184.799 71.5883C186.894 71.5883 188.639 70.3085 189.43 68.1445H184.73V65.6779H192.571C192.501 70.9135 188.988 74.3574 184.799 74.3574ZM207.36 74.3546C204.227 74.3546 202.084 72.3501 202.015 69.5853H204.78C204.849 70.7834 205.978 71.8202 207.452 71.8202C209.088 71.8202 210.079 70.8064 210.079 69.6084C210.079 68.6176 209.411 67.9034 207.936 67.4656L206.024 66.8666C202.775 65.8528 202.153 63.8944 202.153 62.4429C202.153 59.632 204.48 57.6736 207.36 57.6736C210.171 57.6736 212.337 59.4247 212.383 62.3738H209.618C209.572 61.1527 208.742 60.2541 207.291 60.2541C205.978 60.2541 204.964 61.1988 204.964 62.3738C204.964 62.8807 205.125 63.7792 206.83 64.2631L208.558 64.793C210.747 65.4842 212.867 66.6592 212.867 69.4471C212.867 72.5344 210.355 74.3546 207.36 74.3546ZM225.891 74.0781L224.624 70.1383H218.633L217.389 74.0781H214.417L220.131 57.9501H223.149L228.84 74.0781H225.891ZM219.417 67.5808H223.817L221.605 60.8071L219.417 67.5808Z" fill="white"/>
<path d="M95.4792 88.4023V82.5643H98.9069V83.4984L96.4883 83.4901V85.0997H98.1396V86.0588H96.4883V87.4683H98.982V88.4023H95.4792ZM101.082 87.4683H103.042V88.4023H100.073V82.5643H101.082V87.4683ZM104.047 88.4023V82.5643H107.475V83.4984L105.056 83.4901V85.0997H106.708V86.0588H105.056V87.4683H107.55V88.4023H104.047ZM111.046 88.5024C109.494 88.5024 108.252 87.1263 108.252 85.475C108.252 83.8237 109.494 82.4559 111.046 82.4559C111.946 82.4559 112.747 82.9146 113.247 83.6152L112.472 84.199C112.146 83.7403 111.679 83.4651 111.096 83.4651C110.045 83.4651 109.269 84.3658 109.269 85.475C109.269 86.5759 110.028 87.4933 111.087 87.4933C111.679 87.4933 112.146 87.2181 112.472 86.7594L113.247 87.3432C112.747 88.0437 111.946 88.5024 111.046 88.5024ZM117.823 82.5643V83.4984H116.255V88.4023H115.246V83.4984H113.678V82.5643H117.823ZM120.894 82.5643C122.129 82.5643 122.662 83.4984 122.662 84.4408C122.662 85.2832 122.237 86.1005 121.27 86.2756L122.687 88.4023H121.511L120.177 86.309H119.643V88.4023H118.642V82.5643H120.894ZM119.652 85.3749H120.836C121.428 85.3749 121.645 84.9079 121.645 84.4408C121.645 83.9738 121.428 83.4984 120.853 83.4984H119.652V85.3749ZM123.757 88.4023V82.5643H124.766V88.4023H123.757ZM128.621 88.5024C127.07 88.5024 125.828 87.1263 125.828 85.475C125.828 83.8237 127.07 82.4559 128.621 82.4559C129.522 82.4559 130.323 82.9146 130.823 83.6152L130.048 84.199C129.722 83.7403 129.255 83.4651 128.672 83.4651C127.621 83.4651 126.845 84.3658 126.845 85.475C126.845 86.5759 127.604 87.4933 128.663 87.4933C129.255 87.4933 129.722 87.2181 130.048 86.7594L130.823 87.3432C130.323 88.0437 129.522 88.5024 128.621 88.5024ZM135.424 88.4023L134.966 86.9762H132.797L132.347 88.4023H131.271L133.339 82.5643H134.432L136.492 88.4023H135.424ZM133.081 86.0505H134.674L133.873 83.5985L133.081 86.0505ZM138.343 87.4683H140.303V88.4023H137.334V82.5643H138.343V87.4683ZM143.939 88.4023V82.5643H147.367V83.4984L144.948 83.4901V85.0997H146.6V86.0588H144.948V87.4683H147.442V88.4023H143.939ZM150.971 88.5024C149.386 88.5024 148.144 87.1347 148.144 85.475C148.144 83.8237 149.386 82.4559 150.971 82.4559C152.53 82.4559 153.781 83.8237 153.781 85.475C153.781 86.4591 153.339 87.3432 152.656 87.8936L153.339 89.0529L152.622 89.4865L151.93 88.3189C151.63 88.4357 151.304 88.5024 150.971 88.5024ZM149.161 85.475C149.161 86.5842 149.903 87.4933 150.963 87.4933C152.013 87.4933 152.772 86.5842 152.772 85.475C152.772 84.3658 152.013 83.4651 150.963 83.4651C149.903 83.4651 149.161 84.3658 149.161 85.475ZM156.888 88.5024C155.762 88.5024 154.778 87.6768 154.778 86.359V82.5643H155.787V86.284C155.787 87.1013 156.313 87.4933 156.888 87.4933C157.455 87.4933 157.972 87.1013 157.972 86.284V82.5643H158.981V86.359C158.981 87.6768 158.006 88.5024 156.888 88.5024ZM160.253 88.4023V82.5643H161.262V88.4023H160.253ZM165.017 82.5643C166.251 82.5643 166.785 83.4984 166.785 84.4408C166.785 85.3916 166.251 86.309 165 86.309L163.608 86.3173V88.4023H162.598V82.5643H165.017ZM163.608 85.3833L164.959 85.3749C165.551 85.3749 165.768 84.9079 165.768 84.4408C165.768 83.9738 165.551 83.4984 164.975 83.4984H163.608V85.3833ZM174.062 88.4023H173.028L172.594 84.5493L171.118 88.4023H170.334L168.849 84.5576L168.407 88.4023H167.381L168.065 82.5643H168.924L170.726 86.7594L172.51 82.5643H173.378L174.062 88.4023ZM175.133 88.4023V82.5643H178.56V83.4984L176.142 83.4901V85.0997H177.793V86.0588H176.142V87.4683H178.635V88.4023H175.133ZM183.821 82.5643V88.4023H182.912L180.736 84.5242V88.4023H179.726V82.5643H180.669L182.812 86.4174V82.5643H183.821ZM188.787 82.5643V83.4984H187.219V88.4023H186.21V83.4984H184.642V82.5643H188.787ZM194.113 83.2899C193.696 83.2899 193.379 83.5985 193.371 84.0072C193.371 84.4325 193.679 84.7995 194.23 84.7995H195.114V83.9154H195.981L195.989 84.8328H196.673V85.5918H195.989V86.4675L195.981 86.7093V88.4607H195.114V87.927C194.797 88.2439 194.321 88.394 193.838 88.394C192.753 88.394 192.095 87.6517 192.095 86.6843C192.095 85.917 192.562 85.3416 193.104 85.1664C192.678 84.9829 192.412 84.4742 192.412 83.9154C192.412 83.0898 193.104 82.3558 194.096 82.3558L194.113 83.2899ZM193.07 86.5759C193.07 87.0846 193.412 87.4599 193.979 87.4599C194.647 87.4599 195.114 86.9845 195.114 86.284V85.5918H194.23C193.537 85.5918 193.07 85.9921 193.07 86.5759ZM202.302 88.5024C201.168 88.5024 200.393 87.7768 200.368 86.776H201.368C201.393 87.2097 201.802 87.585 202.336 87.585C202.928 87.585 203.287 87.2181 203.287 86.7844C203.287 86.4258 203.045 86.1672 202.511 86.0088L201.819 85.7919C200.643 85.425 200.418 84.7161 200.418 84.1906C200.418 83.1732 201.26 82.4643 202.302 82.4643C203.32 82.4643 204.104 83.0981 204.121 84.1656H203.12C203.103 83.7236 202.803 83.3983 202.277 83.3983C201.802 83.3983 201.435 83.7403 201.435 84.1656C201.435 84.3491 201.493 84.6744 202.111 84.8495L202.736 85.0413C203.528 85.2915 204.296 85.7169 204.296 86.726C204.296 87.8436 203.387 88.5024 202.302 88.5024ZM205.39 88.4023V82.5643H208.817V83.4984L206.399 83.4901V85.0997H208.05V86.0588H206.399V87.4683H208.892V88.4023H205.39ZM212.235 82.5643C213.469 82.5643 214.003 83.4984 214.003 84.4408C214.003 85.2832 213.578 86.1005 212.61 86.2756L214.028 88.4023H212.852L211.518 86.309H210.984V88.4023H209.983V82.5643H212.235ZM210.992 85.3749H212.177C212.769 85.3749 212.986 84.9079 212.986 84.4408C212.986 83.9738 212.769 83.4984 212.193 83.4984H210.992V85.3749ZM217.793 82.5643H218.852L217.168 88.4023H216.242L214.557 82.5643H215.608L216.701 86.726L217.793 82.5643ZM219.708 88.4023V82.5643H220.717V88.4023H219.708ZM224.572 88.5024C223.021 88.5024 221.778 87.1263 221.778 85.475C221.778 83.8237 223.021 82.4559 224.572 82.4559C225.473 82.4559 226.274 82.9146 226.774 83.6152L225.998 84.199C225.673 83.7403 225.206 83.4651 224.622 83.4651C223.571 83.4651 222.796 84.3658 222.796 85.475C222.796 86.5759 223.555 87.4933 224.614 87.4933C225.206 87.4933 225.673 87.2181 225.998 86.7594L226.774 87.3432C226.274 88.0437 225.473 88.5024 224.572 88.5024ZM227.714 88.4023V82.5643H231.142V83.4984L228.723 83.4901V85.0997H230.374V86.0588H228.723V87.4683H231.217V88.4023H227.714ZM233.976 88.5024C232.842 88.5024 232.067 87.7768 232.042 86.776H233.042C233.067 87.2097 233.476 87.585 234.01 87.585C234.602 87.585 234.961 87.2181 234.961 86.7844C234.961 86.4258 234.719 86.1672 234.185 86.0088L233.493 85.7919C232.317 85.425 232.092 84.7161 232.092 84.1906C232.092 83.1732 232.934 82.4643 233.976 82.4643C234.994 82.4643 235.778 83.0981 235.795 84.1656H234.794C234.777 83.7236 234.477 83.3983 233.951 83.3983C233.476 83.3983 233.109 83.7403 233.109 84.1656C233.109 84.3491 233.167 84.6744 233.785 84.8495L234.41 85.0413C235.202 85.2915 235.97 85.7169 235.97 86.726C235.97 87.8436 235.061 88.5024 233.976 88.5024Z" fill="white"/>
</g>
<defs>
<clipPath id="clip0_90_2">
<rect width="262.58" height="105.488" fill="white" transform="translate(0 0.917969)"/>
</clipPath>
</defs>
</svg>
